<svg width="33" height="33" viewBox="0 0 33 33" fill="none" xmlns="http://www.w3.org/2000/svg">
<path d="M16.7222 31.2388C8.32685 31.2388 1.52112 24.4391 1.52112 16.0513C1.52112 7.66343 8.32685 0.86377 16.7222 0.86377C25.1175 0.86377 31.9232 7.66343 31.9232 16.0513C31.9232 24.4391 25.1175 31.2388 16.7222 31.2388Z" stroke="white" stroke-width="1.6875" stroke-miterlimit="10"/>
<path d="M16.9021 0.828613C13.2913 0.828763 9.79844 2.11371 7.04839 4.45355C4.29834 6.79339 2.4706 10.0354 1.89221 13.5996C1.31381 17.1637 2.0225 20.8173 3.89147 23.9068C5.76044 26.9962 8.66774 29.3198 12.0931 30.4618C12.8535 30.5949 13.1386 30.1387 13.1386 29.7395C13.1386 29.3784 13.1196 28.1808 13.1196 26.9073C9.29897 27.6106 8.31056 25.976 8.00644 25.1206C7.66897 24.2888 7.13402 23.5515 6.4478 22.9727C5.91558 22.6876 5.15526 21.9843 6.42877 21.9653C6.91505 22.0181 7.38144 22.1873 7.78843 22.4586C8.19541 22.7299 8.531 23.0954 8.76675 23.5239C8.97473 23.8975 9.25438 24.2265 9.5897 24.4918C9.92501 24.7572 10.3094 24.9537 10.7208 25.0703C11.1322 25.1868 11.5626 25.221 11.9872 25.1709C12.4119 25.1209 12.8225 24.9875 13.1955 24.7784C13.2614 24.0054 13.6059 23.2826 14.165 22.7447C10.7816 22.3645 7.24612 21.0529 7.24612 15.2366C7.22476 13.7253 7.78243 12.2631 8.80477 11.1499C8.33988 9.83642 8.39428 8.39496 8.95683 7.12025C8.95683 7.12025 10.2303 6.72107 13.1385 8.67889C15.6267 7.99457 18.2535 7.99457 20.7417 8.67889C23.6498 6.70207 24.9234 7.12025 24.9234 7.12025C25.486 8.39494 25.5404 9.83643 25.0755 11.1499C26.1009 12.2612 26.659 13.7247 26.6341 15.2366C26.6341 21.0719 23.0796 22.3645 19.6962 22.7447C20.0591 23.1125 20.3386 23.5541 20.5157 24.0395C20.6928 24.5249 20.7634 25.0427 20.7227 25.5578C20.7227 27.5917 20.7036 29.2263 20.7036 29.7395C20.7036 30.1387 20.9888 30.6139 21.7491 30.4618C25.1685 29.3105 28.0674 26.9815 29.9284 23.8905C31.7894 20.7995 32.4914 17.1477 31.909 13.587C31.3266 10.0263 29.4977 6.78851 26.7489 4.45152C24 2.11453 20.5101 0.830491 16.9021 0.828613V0.828613Z" fill="white"/>
</svg>
